<svg xmlns="http://www.w3.org/2000/svg" xmlns:svg="http://www.w3.org/2000/svg" id="svg29" width="171.707" height="171.707" fill="none" version="1.1" viewBox="0 0 171.707 171.707"><metadata id="metadata33"/><path id="path2" fill="#017cee" d="M 2.7690131,171.02167 84.979043,86.750173 c 0.515,-0.5279 0.6137,-1.3441 0.1842,-1.9436 -5.0009,-6.9807 -14.2237,-8.1906 -17.6426,-12.8804 -10.1274,-13.8923 -12.697,-21.7554 -17.0488,-21.2677 -0.304,0.0341 -0.575,0.1977 -0.7886,0.4166 l -29.6986,30.4433 C 2.8995931,99.031673 0.44950308,137.59167 1.7308394e-4,169.87967 c -0.0203000039,1.459 1.74987001606,2.186 2.76884001606,1.142 z"/><path id="path4" fill="#00ad46" d="M 171.02314,168.93867 86.751643,86.728273 c -0.5279,-0.515 -1.3441,-0.6138 -1.9436,-0.1843 -6.9806,5.001 -8.1905,14.223697 -12.8804,17.642697 -13.8923,10.127 -21.7554,12.697 -21.2677,17.049 0.0341,0.304 0.1977,0.575 0.4167,0.788 l 30.4432,29.699 c 17.5133,17.085 56.073297,19.535 88.361297,19.984 1.459,0.021 2.186,-1.749 1.142,-2.768 z"/><path id="path6" fill="#04d659" fill-rule="evenodd" d="m 81.519443,151.72267 c -9.5667,-9.332 -14.0051,-27.795 4.3352,-65.868497 -29.8068,13.3205 -40.2521,30.830497 -35.1137,35.843497 z" clip-rule="evenodd"/><path id="path8" fill="#00c7d4" d="M 168.93814,0.68629325 86.728243,84.957673 c -0.515,0.5279 -0.6137,1.344 -0.1842,1.9435 5.0009,6.9807 14.224097,8.1906 17.642097,12.8805 10.128,13.891997 12.698,21.754997 17.049,21.267997 0.304,-0.034 0.575,-0.198 0.789,-0.417 l 29.698,-30.443297 c 17.086,-17.5135 19.536,-56.0731 19.985,-88.3614297 0.02,-1.45908005 -1.75,-2.18617005 -2.769,-1.14165005 z"/><path id="path10" fill="#11e1ee" fill-rule="evenodd" d="m 151.72314,90.189373 c -9.333,9.5663 -27.796,14.005297 -65.869497,-4.3352 13.3205,29.806497 30.830497,40.252497 35.843497,35.113497 z" clip-rule="evenodd"/><path id="path12" fill="#e43921" d="M 0.68629308,2.7690033 84.957643,84.978973 c 0.5279,0.515 1.344,0.6138 1.9436,0.1843 6.9806,-5.0009 8.1905,-14.2237 12.8799,-17.6426 13.892997,-10.1274 21.755997,-12.697 21.267997,-17.0488 -0.034,-0.304 -0.198,-0.575 -0.416,-0.7886 L 90.189443,19.984673 C 72.675943,2.8995933 34.116243,0.44950325 1.8279431,1.7325377e-4 0.36886308,-0.02013675 -0.35822692,1.7500333 0.68629308,2.7690033 Z"/><path id="path14" fill="#ff7557" fill-rule="evenodd" d="m 90.188843,19.984173 c 9.5663,9.3327 14.005297,27.7952 -4.3352,65.8689 29.806497,-13.3203 40.252497,-30.8306 35.113497,-35.8433 z" clip-rule="evenodd"/><path id="path16" fill="#0cb6ff" fill-rule="evenodd" d="m 19.985643,81.518473 c 9.3327,-9.5667 27.7952,-14.0051 65.8689,4.3352 -13.3204,-29.8068 -30.8306,-40.2521 -35.8433,-35.1137 z" clip-rule="evenodd"/><circle id="circle18" cx="84.798" cy="86.899" r="3.676" fill="#4a4848" transform="rotate(-0.709386)"/><defs id="defs27"><clipPath id="clip0"><rect id="rect24" width="175" height="270" x="0" y="0" fill="#fff"/></clipPath></defs></svg>